<mxfile host="app.diagrams.net" agent="Mozilla/5.0 (Windows NT 10.0; Win64; x64) AppleWebKit/537.36 (KHTML, like Gecko) Chrome/135.0.0.0 Safari/537.36" version="26.2.13" pages="10">
  <diagram id="djDn40kwnOweKTAz0pPC" name="Actividad1">
    <mxGraphModel dx="1108" dy="563" grid="1" gridSize="10" guides="1" tooltips="1" connect="1" arrows="1" fold="1" page="1" pageScale="1" pageWidth="827" pageHeight="1169" math="0" shadow="0">
      <root>
        <mxCell id="0" />
        <mxCell id="1" parent="0" />
        <mxCell id="GfQyjcv0WUyIDNfQLBrJ-1" value="" style="edgeStyle=orthogonalEdgeStyle;rounded=0;orthogonalLoop=1;jettySize=auto;html=1;" edge="1" parent="1" source="GfQyjcv0WUyIDNfQLBrJ-2" target="GfQyjcv0WUyIDNfQLBrJ-4">
          <mxGeometry relative="1" as="geometry" />
        </mxCell>
        <mxCell id="GfQyjcv0WUyIDNfQLBrJ-2" value="Inicio" style="ellipse;whiteSpace=wrap;html=1;" vertex="1" parent="1">
          <mxGeometry x="340" y="30" width="120" height="80" as="geometry" />
        </mxCell>
        <mxCell id="GfQyjcv0WUyIDNfQLBrJ-3" value="" style="edgeStyle=orthogonalEdgeStyle;rounded=0;orthogonalLoop=1;jettySize=auto;html=1;" edge="1" parent="1" source="GfQyjcv0WUyIDNfQLBrJ-4" target="GfQyjcv0WUyIDNfQLBrJ-7">
          <mxGeometry relative="1" as="geometry" />
        </mxCell>
        <mxCell id="GfQyjcv0WUyIDNfQLBrJ-4" value="Solicitar edad" style="shape=parallelogram;perimeter=parallelogramPerimeter;whiteSpace=wrap;html=1;fixedSize=1;" vertex="1" parent="1">
          <mxGeometry x="340" y="200" width="120" height="60" as="geometry" />
        </mxCell>
        <mxCell id="GfQyjcv0WUyIDNfQLBrJ-5" value="" style="edgeStyle=orthogonalEdgeStyle;rounded=0;orthogonalLoop=1;jettySize=auto;html=1;" edge="1" parent="1" source="GfQyjcv0WUyIDNfQLBrJ-7" target="GfQyjcv0WUyIDNfQLBrJ-9">
          <mxGeometry relative="1" as="geometry" />
        </mxCell>
        <mxCell id="GfQyjcv0WUyIDNfQLBrJ-6" value="" style="edgeStyle=orthogonalEdgeStyle;rounded=0;orthogonalLoop=1;jettySize=auto;html=1;" edge="1" parent="1" source="GfQyjcv0WUyIDNfQLBrJ-7" target="GfQyjcv0WUyIDNfQLBrJ-11">
          <mxGeometry relative="1" as="geometry" />
        </mxCell>
        <mxCell id="GfQyjcv0WUyIDNfQLBrJ-7" value="edad &amp;gt;= 18" style="rhombus;whiteSpace=wrap;html=1;" vertex="1" parent="1">
          <mxGeometry x="360" y="330" width="80" height="80" as="geometry" />
        </mxCell>
        <mxCell id="GfQyjcv0WUyIDNfQLBrJ-8" style="edgeStyle=orthogonalEdgeStyle;rounded=0;orthogonalLoop=1;jettySize=auto;html=1;exitX=0.5;exitY=1;exitDx=0;exitDy=0;entryX=0;entryY=0.5;entryDx=0;entryDy=0;" edge="1" parent="1" source="GfQyjcv0WUyIDNfQLBrJ-9" target="GfQyjcv0WUyIDNfQLBrJ-14">
          <mxGeometry relative="1" as="geometry" />
        </mxCell>
        <mxCell id="GfQyjcv0WUyIDNfQLBrJ-9" value="Eres menor de edad" style="shape=parallelogram;perimeter=parallelogramPerimeter;whiteSpace=wrap;html=1;fixedSize=1;" vertex="1" parent="1">
          <mxGeometry x="140" y="335" width="150" height="70" as="geometry" />
        </mxCell>
        <mxCell id="GfQyjcv0WUyIDNfQLBrJ-10" style="edgeStyle=orthogonalEdgeStyle;rounded=0;orthogonalLoop=1;jettySize=auto;html=1;exitX=0.5;exitY=1;exitDx=0;exitDy=0;entryX=1;entryY=0.5;entryDx=0;entryDy=0;" edge="1" parent="1" source="GfQyjcv0WUyIDNfQLBrJ-11" target="GfQyjcv0WUyIDNfQLBrJ-14">
          <mxGeometry relative="1" as="geometry" />
        </mxCell>
        <mxCell id="GfQyjcv0WUyIDNfQLBrJ-11" value="Eres mayor de edad" style="shape=parallelogram;perimeter=parallelogramPerimeter;whiteSpace=wrap;html=1;fixedSize=1;" vertex="1" parent="1">
          <mxGeometry x="520" y="335" width="150" height="70" as="geometry" />
        </mxCell>
        <mxCell id="GfQyjcv0WUyIDNfQLBrJ-12" value="si" style="text;html=1;align=center;verticalAlign=middle;resizable=0;points=[];autosize=1;strokeColor=none;fillColor=none;" vertex="1" parent="1">
          <mxGeometry x="470" y="375" width="30" height="30" as="geometry" />
        </mxCell>
        <mxCell id="GfQyjcv0WUyIDNfQLBrJ-13" value="no" style="text;html=1;align=center;verticalAlign=middle;resizable=0;points=[];autosize=1;strokeColor=none;fillColor=none;" vertex="1" parent="1">
          <mxGeometry x="300" y="370" width="40" height="30" as="geometry" />
        </mxCell>
        <mxCell id="GfQyjcv0WUyIDNfQLBrJ-14" value="Fin" style="ellipse;whiteSpace=wrap;html=1;" vertex="1" parent="1">
          <mxGeometry x="330" y="505" width="150" height="80" as="geometry" />
        </mxCell>
      </root>
    </mxGraphModel>
  </diagram>
  <diagram id="i4m05Bzt_fMTdwcssZf7" name="Actividad2">
    <mxGraphModel dx="1108" dy="563" grid="1" gridSize="10" guides="1" tooltips="1" connect="1" arrows="1" fold="1" page="1" pageScale="1" pageWidth="827" pageHeight="1169" math="0" shadow="0">
      <root>
        <mxCell id="0" />
        <mxCell id="1" parent="0" />
        <mxCell id="YVcCyfR4eim9A3peFEHT-1" value="" style="edgeStyle=orthogonalEdgeStyle;rounded=0;orthogonalLoop=1;jettySize=auto;html=1;" edge="1" parent="1" source="YVcCyfR4eim9A3peFEHT-2" target="YVcCyfR4eim9A3peFEHT-4">
          <mxGeometry relative="1" as="geometry" />
        </mxCell>
        <mxCell id="YVcCyfR4eim9A3peFEHT-2" value="Inicio" style="ellipse;whiteSpace=wrap;html=1;" vertex="1" parent="1">
          <mxGeometry x="340" y="30" width="120" height="80" as="geometry" />
        </mxCell>
        <mxCell id="YVcCyfR4eim9A3peFEHT-3" value="" style="edgeStyle=orthogonalEdgeStyle;rounded=0;orthogonalLoop=1;jettySize=auto;html=1;" edge="1" parent="1" source="YVcCyfR4eim9A3peFEHT-4" target="YVcCyfR4eim9A3peFEHT-7">
          <mxGeometry relative="1" as="geometry" />
        </mxCell>
        <mxCell id="YVcCyfR4eim9A3peFEHT-4" value="Solicitar numero" style="shape=parallelogram;perimeter=parallelogramPerimeter;whiteSpace=wrap;html=1;fixedSize=1;" vertex="1" parent="1">
          <mxGeometry x="340" y="200" width="120" height="60" as="geometry" />
        </mxCell>
        <mxCell id="YVcCyfR4eim9A3peFEHT-5" value="" style="edgeStyle=orthogonalEdgeStyle;rounded=0;orthogonalLoop=1;jettySize=auto;html=1;" edge="1" parent="1" source="YVcCyfR4eim9A3peFEHT-7" target="YVcCyfR4eim9A3peFEHT-9">
          <mxGeometry relative="1" as="geometry" />
        </mxCell>
        <mxCell id="YVcCyfR4eim9A3peFEHT-6" value="" style="edgeStyle=orthogonalEdgeStyle;rounded=0;orthogonalLoop=1;jettySize=auto;html=1;" edge="1" parent="1" source="YVcCyfR4eim9A3peFEHT-7" target="YVcCyfR4eim9A3peFEHT-14">
          <mxGeometry relative="1" as="geometry" />
        </mxCell>
        <mxCell id="YVcCyfR4eim9A3peFEHT-7" value="¿El numero es positivo? " style="rhombus;whiteSpace=wrap;html=1;" vertex="1" parent="1">
          <mxGeometry x="60" y="335" width="110" height="100" as="geometry" />
        </mxCell>
        <mxCell id="YVcCyfR4eim9A3peFEHT-8" style="edgeStyle=orthogonalEdgeStyle;rounded=0;orthogonalLoop=1;jettySize=auto;html=1;exitX=1;exitY=0.5;exitDx=0;exitDy=0;entryX=0.5;entryY=0;entryDx=0;entryDy=0;" edge="1" parent="1" source="YVcCyfR4eim9A3peFEHT-9" target="YVcCyfR4eim9A3peFEHT-11">
          <mxGeometry relative="1" as="geometry" />
        </mxCell>
        <mxCell id="YVcCyfR4eim9A3peFEHT-9" value="El numero es positivo" style="shape=parallelogram;perimeter=parallelogramPerimeter;whiteSpace=wrap;html=1;fixedSize=1;" vertex="1" parent="1">
          <mxGeometry x="255" y="350" width="150" height="70" as="geometry" />
        </mxCell>
        <mxCell id="YVcCyfR4eim9A3peFEHT-10" value="si" style="text;html=1;align=center;verticalAlign=middle;resizable=0;points=[];autosize=1;strokeColor=none;fillColor=none;" vertex="1" parent="1">
          <mxGeometry x="185" y="380" width="30" height="30" as="geometry" />
        </mxCell>
        <mxCell id="YVcCyfR4eim9A3peFEHT-11" value="Fin" style="ellipse;whiteSpace=wrap;html=1;" vertex="1" parent="1">
          <mxGeometry x="550" y="495" width="150" height="80" as="geometry" />
        </mxCell>
        <mxCell id="YVcCyfR4eim9A3peFEHT-12" value="" style="edgeStyle=orthogonalEdgeStyle;rounded=0;orthogonalLoop=1;jettySize=auto;html=1;" edge="1" parent="1" source="YVcCyfR4eim9A3peFEHT-14" target="YVcCyfR4eim9A3peFEHT-17">
          <mxGeometry relative="1" as="geometry" />
        </mxCell>
        <mxCell id="YVcCyfR4eim9A3peFEHT-13" value="" style="edgeStyle=orthogonalEdgeStyle;rounded=0;orthogonalLoop=1;jettySize=auto;html=1;" edge="1" parent="1" source="YVcCyfR4eim9A3peFEHT-14" target="YVcCyfR4eim9A3peFEHT-20">
          <mxGeometry relative="1" as="geometry" />
        </mxCell>
        <mxCell id="YVcCyfR4eim9A3peFEHT-14" value="¿El numero es negativo?" style="rhombus;whiteSpace=wrap;html=1;" vertex="1" parent="1">
          <mxGeometry x="65" y="485" width="100" height="100" as="geometry" />
        </mxCell>
        <mxCell id="YVcCyfR4eim9A3peFEHT-15" value="no" style="text;html=1;align=center;verticalAlign=middle;resizable=0;points=[];autosize=1;strokeColor=none;fillColor=none;" vertex="1" parent="1">
          <mxGeometry x="116" y="443" width="40" height="30" as="geometry" />
        </mxCell>
        <mxCell id="YVcCyfR4eim9A3peFEHT-16" style="edgeStyle=orthogonalEdgeStyle;rounded=0;orthogonalLoop=1;jettySize=auto;html=1;exitX=1;exitY=0.5;exitDx=0;exitDy=0;entryX=0;entryY=0.5;entryDx=0;entryDy=0;" edge="1" parent="1" source="YVcCyfR4eim9A3peFEHT-17" target="YVcCyfR4eim9A3peFEHT-11">
          <mxGeometry relative="1" as="geometry" />
        </mxCell>
        <mxCell id="YVcCyfR4eim9A3peFEHT-17" value="El numero es negativo" style="shape=parallelogram;perimeter=parallelogramPerimeter;whiteSpace=wrap;html=1;fixedSize=1;" vertex="1" parent="1">
          <mxGeometry x="240" y="502.5" width="145" height="65" as="geometry" />
        </mxCell>
        <mxCell id="YVcCyfR4eim9A3peFEHT-18" value="si" style="text;html=1;align=center;verticalAlign=middle;resizable=0;points=[];autosize=1;strokeColor=none;fillColor=none;" vertex="1" parent="1">
          <mxGeometry x="186" y="508" width="30" height="30" as="geometry" />
        </mxCell>
        <mxCell id="YVcCyfR4eim9A3peFEHT-19" style="edgeStyle=orthogonalEdgeStyle;rounded=0;orthogonalLoop=1;jettySize=auto;html=1;exitX=1;exitY=0.5;exitDx=0;exitDy=0;entryX=0.5;entryY=1;entryDx=0;entryDy=0;" edge="1" parent="1" source="YVcCyfR4eim9A3peFEHT-20" target="YVcCyfR4eim9A3peFEHT-11">
          <mxGeometry relative="1" as="geometry" />
        </mxCell>
        <mxCell id="YVcCyfR4eim9A3peFEHT-20" value="El numero es 0" style="shape=parallelogram;perimeter=parallelogramPerimeter;whiteSpace=wrap;html=1;fixedSize=1;" vertex="1" parent="1">
          <mxGeometry x="47.5" y="670" width="135" height="75" as="geometry" />
        </mxCell>
        <mxCell id="YVcCyfR4eim9A3peFEHT-21" value="no" style="text;html=1;align=center;verticalAlign=middle;resizable=0;points=[];autosize=1;strokeColor=none;fillColor=none;" vertex="1" parent="1">
          <mxGeometry x="111" y="608" width="40" height="30" as="geometry" />
        </mxCell>
      </root>
    </mxGraphModel>
  </diagram>
  <diagram id="cOjIh_oxzNHA9ObWyucs" name="Actividad3">
    <mxGraphModel dx="306" dy="562" grid="1" gridSize="10" guides="1" tooltips="1" connect="1" arrows="1" fold="1" page="1" pageScale="1" pageWidth="827" pageHeight="1169" math="0" shadow="0">
      <root>
        <mxCell id="0" />
        <mxCell id="1" parent="0" />
        <mxCell id="SxD8-1nvX2Z4b-s5rsDQ-1" value="" style="edgeStyle=orthogonalEdgeStyle;rounded=0;orthogonalLoop=1;jettySize=auto;html=1;" edge="1" parent="1" source="SxD8-1nvX2Z4b-s5rsDQ-2" target="SxD8-1nvX2Z4b-s5rsDQ-4">
          <mxGeometry relative="1" as="geometry" />
        </mxCell>
        <mxCell id="SxD8-1nvX2Z4b-s5rsDQ-2" value="Inicio" style="ellipse;whiteSpace=wrap;html=1;" vertex="1" parent="1">
          <mxGeometry x="340" y="30" width="120" height="80" as="geometry" />
        </mxCell>
        <mxCell id="SxD8-1nvX2Z4b-s5rsDQ-3" value="" style="edgeStyle=orthogonalEdgeStyle;rounded=0;orthogonalLoop=1;jettySize=auto;html=1;" edge="1" parent="1" source="SxD8-1nvX2Z4b-s5rsDQ-4" target="SxD8-1nvX2Z4b-s5rsDQ-7">
          <mxGeometry relative="1" as="geometry" />
        </mxCell>
        <mxCell id="SxD8-1nvX2Z4b-s5rsDQ-4" value="Solicitar numero" style="shape=parallelogram;perimeter=parallelogramPerimeter;whiteSpace=wrap;html=1;fixedSize=1;" vertex="1" parent="1">
          <mxGeometry x="340" y="200" width="120" height="60" as="geometry" />
        </mxCell>
        <mxCell id="SxD8-1nvX2Z4b-s5rsDQ-5" value="" style="edgeStyle=orthogonalEdgeStyle;rounded=0;orthogonalLoop=1;jettySize=auto;html=1;" edge="1" parent="1" source="SxD8-1nvX2Z4b-s5rsDQ-7" target="SxD8-1nvX2Z4b-s5rsDQ-9">
          <mxGeometry relative="1" as="geometry" />
        </mxCell>
        <mxCell id="SxD8-1nvX2Z4b-s5rsDQ-6" value="" style="edgeStyle=orthogonalEdgeStyle;rounded=0;orthogonalLoop=1;jettySize=auto;html=1;" edge="1" parent="1" source="SxD8-1nvX2Z4b-s5rsDQ-7" target="SxD8-1nvX2Z4b-s5rsDQ-11">
          <mxGeometry relative="1" as="geometry" />
        </mxCell>
        <mxCell id="SxD8-1nvX2Z4b-s5rsDQ-7" value="numero % 2 == 0" style="rhombus;whiteSpace=wrap;html=1;" vertex="1" parent="1">
          <mxGeometry x="345" y="330" width="110" height="110" as="geometry" />
        </mxCell>
        <mxCell id="SxD8-1nvX2Z4b-s5rsDQ-8" style="edgeStyle=orthogonalEdgeStyle;rounded=0;orthogonalLoop=1;jettySize=auto;html=1;exitX=0.5;exitY=1;exitDx=0;exitDy=0;entryX=0;entryY=0.5;entryDx=0;entryDy=0;" edge="1" parent="1" source="SxD8-1nvX2Z4b-s5rsDQ-9" target="SxD8-1nvX2Z4b-s5rsDQ-14">
          <mxGeometry relative="1" as="geometry" />
        </mxCell>
        <mxCell id="SxD8-1nvX2Z4b-s5rsDQ-9" value="El numero es impar" style="shape=parallelogram;perimeter=parallelogramPerimeter;whiteSpace=wrap;html=1;fixedSize=1;" vertex="1" parent="1">
          <mxGeometry x="130" y="350" width="150" height="70" as="geometry" />
        </mxCell>
        <mxCell id="SxD8-1nvX2Z4b-s5rsDQ-10" style="edgeStyle=orthogonalEdgeStyle;rounded=0;orthogonalLoop=1;jettySize=auto;html=1;exitX=0.5;exitY=1;exitDx=0;exitDy=0;entryX=1;entryY=0.5;entryDx=0;entryDy=0;" edge="1" parent="1" source="SxD8-1nvX2Z4b-s5rsDQ-11" target="SxD8-1nvX2Z4b-s5rsDQ-14">
          <mxGeometry relative="1" as="geometry" />
        </mxCell>
        <mxCell id="SxD8-1nvX2Z4b-s5rsDQ-11" value="El numero es par" style="shape=parallelogram;perimeter=parallelogramPerimeter;whiteSpace=wrap;html=1;fixedSize=1;" vertex="1" parent="1">
          <mxGeometry x="530" y="350" width="150" height="70" as="geometry" />
        </mxCell>
        <mxCell id="SxD8-1nvX2Z4b-s5rsDQ-12" value="si" style="text;html=1;align=center;verticalAlign=middle;resizable=0;points=[];autosize=1;strokeColor=none;fillColor=none;" vertex="1" parent="1">
          <mxGeometry x="470" y="375" width="30" height="30" as="geometry" />
        </mxCell>
        <mxCell id="SxD8-1nvX2Z4b-s5rsDQ-13" value="no" style="text;html=1;align=center;verticalAlign=middle;resizable=0;points=[];autosize=1;strokeColor=none;fillColor=none;" vertex="1" parent="1">
          <mxGeometry x="300" y="380" width="40" height="30" as="geometry" />
        </mxCell>
        <mxCell id="SxD8-1nvX2Z4b-s5rsDQ-14" value="Fin" style="ellipse;whiteSpace=wrap;html=1;" vertex="1" parent="1">
          <mxGeometry x="330" y="505" width="150" height="80" as="geometry" />
        </mxCell>
      </root>
    </mxGraphModel>
  </diagram>
  <diagram id="_gAqxZhWl6eod2BnhRwI" name="Actividad4">
    <mxGraphModel dx="306" dy="562" grid="1" gridSize="10" guides="1" tooltips="1" connect="1" arrows="1" fold="1" page="1" pageScale="1" pageWidth="827" pageHeight="1169" math="0" shadow="0">
      <root>
        <mxCell id="0" />
        <mxCell id="1" parent="0" />
        <mxCell id="65dMeaLLh-yFzgQy5EiW-1" value="" style="edgeStyle=orthogonalEdgeStyle;rounded=0;orthogonalLoop=1;jettySize=auto;html=1;" edge="1" parent="1" source="65dMeaLLh-yFzgQy5EiW-2" target="65dMeaLLh-yFzgQy5EiW-4">
          <mxGeometry relative="1" as="geometry" />
        </mxCell>
        <mxCell id="65dMeaLLh-yFzgQy5EiW-2" value="Inicio" style="ellipse;whiteSpace=wrap;html=1;" vertex="1" parent="1">
          <mxGeometry x="340" y="30" width="120" height="80" as="geometry" />
        </mxCell>
        <mxCell id="65dMeaLLh-yFzgQy5EiW-3" value="" style="edgeStyle=orthogonalEdgeStyle;rounded=0;orthogonalLoop=1;jettySize=auto;html=1;" edge="1" parent="1" source="65dMeaLLh-yFzgQy5EiW-4" target="65dMeaLLh-yFzgQy5EiW-7">
          <mxGeometry relative="1" as="geometry" />
        </mxCell>
        <mxCell id="65dMeaLLh-yFzgQy5EiW-4" value="&lt;div&gt;ContraseñaR: python123&lt;/div&gt;&lt;div&gt;Solicitar contraseña&lt;/div&gt;" style="shape=parallelogram;perimeter=parallelogramPerimeter;whiteSpace=wrap;html=1;fixedSize=1;" vertex="1" parent="1">
          <mxGeometry x="320" y="200" width="160" height="70" as="geometry" />
        </mxCell>
        <mxCell id="65dMeaLLh-yFzgQy5EiW-5" value="" style="edgeStyle=orthogonalEdgeStyle;rounded=0;orthogonalLoop=1;jettySize=auto;html=1;" edge="1" parent="1" source="65dMeaLLh-yFzgQy5EiW-7" target="65dMeaLLh-yFzgQy5EiW-9">
          <mxGeometry relative="1" as="geometry" />
        </mxCell>
        <mxCell id="65dMeaLLh-yFzgQy5EiW-6" value="" style="edgeStyle=orthogonalEdgeStyle;rounded=0;orthogonalLoop=1;jettySize=auto;html=1;" edge="1" parent="1" source="65dMeaLLh-yFzgQy5EiW-7" target="65dMeaLLh-yFzgQy5EiW-11">
          <mxGeometry relative="1" as="geometry" />
        </mxCell>
        <mxCell id="65dMeaLLh-yFzgQy5EiW-7" value="Contraseña == ContraseñaR" style="rhombus;whiteSpace=wrap;html=1;" vertex="1" parent="1">
          <mxGeometry x="335" y="325" width="130" height="130" as="geometry" />
        </mxCell>
        <mxCell id="65dMeaLLh-yFzgQy5EiW-8" style="edgeStyle=orthogonalEdgeStyle;rounded=0;orthogonalLoop=1;jettySize=auto;html=1;exitX=0.5;exitY=1;exitDx=0;exitDy=0;entryX=0;entryY=0.5;entryDx=0;entryDy=0;" edge="1" parent="1" source="65dMeaLLh-yFzgQy5EiW-9" target="65dMeaLLh-yFzgQy5EiW-14">
          <mxGeometry relative="1" as="geometry" />
        </mxCell>
        <mxCell id="65dMeaLLh-yFzgQy5EiW-9" value="Contraseña incorrecta" style="shape=parallelogram;perimeter=parallelogramPerimeter;whiteSpace=wrap;html=1;fixedSize=1;" vertex="1" parent="1">
          <mxGeometry x="90" y="355" width="150" height="70" as="geometry" />
        </mxCell>
        <mxCell id="65dMeaLLh-yFzgQy5EiW-10" style="edgeStyle=orthogonalEdgeStyle;rounded=0;orthogonalLoop=1;jettySize=auto;html=1;exitX=0.5;exitY=1;exitDx=0;exitDy=0;entryX=1;entryY=0.5;entryDx=0;entryDy=0;" edge="1" parent="1" source="65dMeaLLh-yFzgQy5EiW-11" target="65dMeaLLh-yFzgQy5EiW-14">
          <mxGeometry relative="1" as="geometry" />
        </mxCell>
        <mxCell id="65dMeaLLh-yFzgQy5EiW-11" value="Acceso concedido" style="shape=parallelogram;perimeter=parallelogramPerimeter;whiteSpace=wrap;html=1;fixedSize=1;" vertex="1" parent="1">
          <mxGeometry x="580" y="355" width="150" height="70" as="geometry" />
        </mxCell>
        <mxCell id="65dMeaLLh-yFzgQy5EiW-12" value="si" style="text;html=1;align=center;verticalAlign=middle;resizable=0;points=[];autosize=1;strokeColor=none;fillColor=none;" vertex="1" parent="1">
          <mxGeometry x="510" y="390" width="30" height="30" as="geometry" />
        </mxCell>
        <mxCell id="65dMeaLLh-yFzgQy5EiW-13" value="no" style="text;html=1;align=center;verticalAlign=middle;resizable=0;points=[];autosize=1;strokeColor=none;fillColor=none;" vertex="1" parent="1">
          <mxGeometry x="270" y="390" width="40" height="30" as="geometry" />
        </mxCell>
        <mxCell id="65dMeaLLh-yFzgQy5EiW-14" value="Fin" style="ellipse;whiteSpace=wrap;html=1;" vertex="1" parent="1">
          <mxGeometry x="330" y="505" width="150" height="80" as="geometry" />
        </mxCell>
      </root>
    </mxGraphModel>
  </diagram>
  <diagram id="QO2Eibfz-rFk2ZD6R8A0" name="Actividad5">
    <mxGraphModel dx="556" dy="1022" grid="1" gridSize="10" guides="1" tooltips="1" connect="1" arrows="1" fold="1" page="1" pageScale="1" pageWidth="827" pageHeight="1169" math="0" shadow="0">
      <root>
        <mxCell id="0" />
        <mxCell id="1" parent="0" />
        <mxCell id="flIXX22L1BiPrAke9IPn-1" value="" style="edgeStyle=orthogonalEdgeStyle;rounded=0;orthogonalLoop=1;jettySize=auto;html=1;" edge="1" parent="1" source="flIXX22L1BiPrAke9IPn-2" target="flIXX22L1BiPrAke9IPn-4">
          <mxGeometry relative="1" as="geometry" />
        </mxCell>
        <mxCell id="flIXX22L1BiPrAke9IPn-2" value="Inicio" style="ellipse;whiteSpace=wrap;html=1;" vertex="1" parent="1">
          <mxGeometry x="340" y="30" width="120" height="80" as="geometry" />
        </mxCell>
        <mxCell id="flIXX22L1BiPrAke9IPn-3" value="" style="edgeStyle=orthogonalEdgeStyle;rounded=0;orthogonalLoop=1;jettySize=auto;html=1;" edge="1" parent="1" source="flIXX22L1BiPrAke9IPn-4" target="flIXX22L1BiPrAke9IPn-7">
          <mxGeometry relative="1" as="geometry" />
        </mxCell>
        <mxCell id="flIXX22L1BiPrAke9IPn-4" value="&lt;div&gt;total_Cuenta&lt;/div&gt;&lt;div&gt;por_propina&lt;/div&gt;" style="shape=parallelogram;perimeter=parallelogramPerimeter;whiteSpace=wrap;html=1;fixedSize=1;" vertex="1" parent="1">
          <mxGeometry x="327.5" y="180" width="145" height="90" as="geometry" />
        </mxCell>
        <mxCell id="flIXX22L1BiPrAke9IPn-5" value="Fin" style="ellipse;whiteSpace=wrap;html=1;" vertex="1" parent="1">
          <mxGeometry x="325" y="710" width="150" height="80" as="geometry" />
        </mxCell>
        <mxCell id="flIXX22L1BiPrAke9IPn-6" value="" style="edgeStyle=orthogonalEdgeStyle;rounded=0;orthogonalLoop=1;jettySize=auto;html=1;" edge="1" parent="1" source="flIXX22L1BiPrAke9IPn-7" target="flIXX22L1BiPrAke9IPn-9">
          <mxGeometry relative="1" as="geometry" />
        </mxCell>
        <mxCell id="flIXX22L1BiPrAke9IPn-7" value="Total_propina = (total_Cuenta * por_propina)/100" style="whiteSpace=wrap;html=1;" vertex="1" parent="1">
          <mxGeometry x="325" y="360" width="150" height="125" as="geometry" />
        </mxCell>
        <mxCell id="flIXX22L1BiPrAke9IPn-8" style="edgeStyle=orthogonalEdgeStyle;rounded=0;orthogonalLoop=1;jettySize=auto;html=1;exitX=0.5;exitY=1;exitDx=0;exitDy=0;entryX=0.5;entryY=0;entryDx=0;entryDy=0;" edge="1" parent="1" source="flIXX22L1BiPrAke9IPn-9" target="flIXX22L1BiPrAke9IPn-5">
          <mxGeometry relative="1" as="geometry" />
        </mxCell>
        <mxCell id="flIXX22L1BiPrAke9IPn-9" value="Total propina" style="shape=parallelogram;perimeter=parallelogramPerimeter;whiteSpace=wrap;html=1;fixedSize=1;" vertex="1" parent="1">
          <mxGeometry x="340" y="555" width="120" height="60" as="geometry" />
        </mxCell>
      </root>
    </mxGraphModel>
  </diagram>
  <diagram name="Actividad 6" id="EUaZFNnrYYaAj6eYlFIN">
    <mxGraphModel dx="1304" dy="662" grid="1" gridSize="10" guides="1" tooltips="1" connect="1" arrows="1" fold="1" page="1" pageScale="1" pageWidth="827" pageHeight="1169" math="0" shadow="0">
      <root>
        <mxCell id="0" />
        <mxCell id="1" parent="0" />
        <mxCell id="vu33o3NED_jBNiUwisHg-30" style="edgeStyle=orthogonalEdgeStyle;rounded=0;orthogonalLoop=1;jettySize=auto;html=1;exitX=0.5;exitY=1;exitDx=0;exitDy=0;entryX=0.5;entryY=0;entryDx=0;entryDy=0;" edge="1" parent="1" source="vu33o3NED_jBNiUwisHg-1" target="vu33o3NED_jBNiUwisHg-6">
          <mxGeometry relative="1" as="geometry" />
        </mxCell>
        <mxCell id="vu33o3NED_jBNiUwisHg-1" value="&lt;br&gt;&lt;div&gt;Numero, Numero secreto&lt;/div&gt;" style="shape=parallelogram;perimeter=parallelogramPerimeter;whiteSpace=wrap;html=1;fixedSize=1;" vertex="1" parent="1">
          <mxGeometry x="310" y="160" width="170" height="60" as="geometry" />
        </mxCell>
        <mxCell id="vu33o3NED_jBNiUwisHg-2" value="Inicio" style="ellipse;whiteSpace=wrap;html=1;aspect=fixed;" vertex="1" parent="1">
          <mxGeometry x="350" y="60" width="80" height="80" as="geometry" />
        </mxCell>
        <mxCell id="vu33o3NED_jBNiUwisHg-15" style="edgeStyle=orthogonalEdgeStyle;rounded=0;orthogonalLoop=1;jettySize=auto;html=1;exitX=0;exitY=0.5;exitDx=0;exitDy=0;entryX=0.5;entryY=0;entryDx=0;entryDy=0;" edge="1" parent="1" source="vu33o3NED_jBNiUwisHg-18" target="vu33o3NED_jBNiUwisHg-4">
          <mxGeometry relative="1" as="geometry">
            <Array as="points">
              <mxPoint x="390" y="420" />
              <mxPoint x="390" y="485" />
              <mxPoint x="395" y="485" />
            </Array>
          </mxGeometry>
        </mxCell>
        <mxCell id="vu33o3NED_jBNiUwisHg-21" style="edgeStyle=orthogonalEdgeStyle;rounded=0;orthogonalLoop=1;jettySize=auto;html=1;exitX=1;exitY=0.5;exitDx=0;exitDy=0;" edge="1" parent="1" source="vu33o3NED_jBNiUwisHg-3" target="vu33o3NED_jBNiUwisHg-22">
          <mxGeometry relative="1" as="geometry">
            <mxPoint x="630" y="340" as="targetPoint" />
          </mxGeometry>
        </mxCell>
        <mxCell id="vu33o3NED_jBNiUwisHg-24" value="no" style="edgeLabel;html=1;align=center;verticalAlign=middle;resizable=0;points=[];" vertex="1" connectable="0" parent="vu33o3NED_jBNiUwisHg-21">
          <mxGeometry x="-0.2" y="-3" relative="1" as="geometry">
            <mxPoint as="offset" />
          </mxGeometry>
        </mxCell>
        <mxCell id="vu33o3NED_jBNiUwisHg-3" value="Es menor?" style="rhombus;whiteSpace=wrap;html=1;" vertex="1" parent="1">
          <mxGeometry x="470" y="300" width="80" height="80" as="geometry" />
        </mxCell>
        <mxCell id="vu33o3NED_jBNiUwisHg-4" value="Fin" style="ellipse;whiteSpace=wrap;html=1;aspect=fixed;" vertex="1" parent="1">
          <mxGeometry x="355" y="520" width="80" height="80" as="geometry" />
        </mxCell>
        <mxCell id="vu33o3NED_jBNiUwisHg-10" style="edgeStyle=orthogonalEdgeStyle;rounded=0;orthogonalLoop=1;jettySize=auto;html=1;exitX=0;exitY=0.5;exitDx=0;exitDy=0;entryX=0.5;entryY=0;entryDx=0;entryDy=0;" edge="1" parent="1" source="vu33o3NED_jBNiUwisHg-6" target="vu33o3NED_jBNiUwisHg-16">
          <mxGeometry relative="1" as="geometry">
            <mxPoint x="280" y="440" as="targetPoint" />
            <Array as="points">
              <mxPoint x="260" y="277" />
            </Array>
          </mxGeometry>
        </mxCell>
        <mxCell id="vu33o3NED_jBNiUwisHg-11" value="Si" style="edgeLabel;html=1;align=center;verticalAlign=middle;resizable=0;points=[];" vertex="1" connectable="0" parent="vu33o3NED_jBNiUwisHg-10">
          <mxGeometry x="-0.2322" relative="1" as="geometry">
            <mxPoint as="offset" />
          </mxGeometry>
        </mxCell>
        <mxCell id="vu33o3NED_jBNiUwisHg-12" style="edgeStyle=orthogonalEdgeStyle;rounded=0;orthogonalLoop=1;jettySize=auto;html=1;exitX=1;exitY=0.5;exitDx=0;exitDy=0;entryX=0.5;entryY=0;entryDx=0;entryDy=0;" edge="1" parent="1" source="vu33o3NED_jBNiUwisHg-6" target="vu33o3NED_jBNiUwisHg-3">
          <mxGeometry relative="1" as="geometry" />
        </mxCell>
        <mxCell id="vu33o3NED_jBNiUwisHg-13" value="no" style="edgeLabel;html=1;align=center;verticalAlign=middle;resizable=0;points=[];" vertex="1" connectable="0" parent="vu33o3NED_jBNiUwisHg-12">
          <mxGeometry x="-0.4082" y="3" relative="1" as="geometry">
            <mxPoint as="offset" />
          </mxGeometry>
        </mxCell>
        <mxCell id="vu33o3NED_jBNiUwisHg-6" value="Numero es igual?" style="rhombus;whiteSpace=wrap;html=1;" vertex="1" parent="1">
          <mxGeometry x="355" y="240" width="80" height="74" as="geometry" />
        </mxCell>
        <mxCell id="vu33o3NED_jBNiUwisHg-16" value="Es igual" style="shape=parallelogram;perimeter=parallelogramPerimeter;whiteSpace=wrap;html=1;fixedSize=1;" vertex="1" parent="1">
          <mxGeometry x="200" y="320" width="120" height="60" as="geometry" />
        </mxCell>
        <mxCell id="vu33o3NED_jBNiUwisHg-17" style="edgeStyle=orthogonalEdgeStyle;rounded=0;orthogonalLoop=1;jettySize=auto;html=1;exitX=0.5;exitY=1;exitDx=0;exitDy=0;entryX=-0.012;entryY=0.588;entryDx=0;entryDy=0;entryPerimeter=0;" edge="1" parent="1" source="vu33o3NED_jBNiUwisHg-16" target="vu33o3NED_jBNiUwisHg-4">
          <mxGeometry relative="1" as="geometry" />
        </mxCell>
        <mxCell id="vu33o3NED_jBNiUwisHg-19" value="" style="edgeStyle=orthogonalEdgeStyle;rounded=0;orthogonalLoop=1;jettySize=auto;html=1;exitX=0;exitY=0.5;exitDx=0;exitDy=0;entryX=0.5;entryY=0;entryDx=0;entryDy=0;" edge="1" parent="1" source="vu33o3NED_jBNiUwisHg-3" target="vu33o3NED_jBNiUwisHg-18">
          <mxGeometry relative="1" as="geometry">
            <mxPoint x="470" y="340" as="sourcePoint" />
            <mxPoint x="395" y="520" as="targetPoint" />
          </mxGeometry>
        </mxCell>
        <mxCell id="vu33o3NED_jBNiUwisHg-25" value="si" style="edgeLabel;html=1;align=center;verticalAlign=middle;resizable=0;points=[];" vertex="1" connectable="0" parent="vu33o3NED_jBNiUwisHg-19">
          <mxGeometry x="-0.3231" y="-1" relative="1" as="geometry">
            <mxPoint as="offset" />
          </mxGeometry>
        </mxCell>
        <mxCell id="vu33o3NED_jBNiUwisHg-18" value="El numero es menor&amp;nbsp;" style="shape=parallelogram;perimeter=parallelogramPerimeter;whiteSpace=wrap;html=1;fixedSize=1;" vertex="1" parent="1">
          <mxGeometry x="330" y="390" width="120" height="60" as="geometry" />
        </mxCell>
        <mxCell id="vu33o3NED_jBNiUwisHg-27" style="edgeStyle=orthogonalEdgeStyle;rounded=0;orthogonalLoop=1;jettySize=auto;html=1;exitX=0.5;exitY=1;exitDx=0;exitDy=0;entryX=1;entryY=0.5;entryDx=0;entryDy=0;" edge="1" parent="1" source="vu33o3NED_jBNiUwisHg-22" target="vu33o3NED_jBNiUwisHg-4">
          <mxGeometry relative="1" as="geometry" />
        </mxCell>
        <mxCell id="vu33o3NED_jBNiUwisHg-22" value="El numero es mayor" style="shape=parallelogram;perimeter=parallelogramPerimeter;whiteSpace=wrap;html=1;fixedSize=1;" vertex="1" parent="1">
          <mxGeometry x="510" y="430" width="120" height="60" as="geometry" />
        </mxCell>
        <mxCell id="vu33o3NED_jBNiUwisHg-29" style="edgeStyle=orthogonalEdgeStyle;rounded=0;orthogonalLoop=1;jettySize=auto;html=1;exitX=0.5;exitY=1;exitDx=0;exitDy=0;entryX=0.465;entryY=-0.017;entryDx=0;entryDy=0;entryPerimeter=0;" edge="1" parent="1" source="vu33o3NED_jBNiUwisHg-2" target="vu33o3NED_jBNiUwisHg-1">
          <mxGeometry relative="1" as="geometry" />
        </mxCell>
      </root>
    </mxGraphModel>
  </diagram>
  <diagram id="QA_5bd7pQeP7aohWQubf" name="Actividad 7">
    <mxGraphModel dx="1108" dy="563" grid="1" gridSize="10" guides="1" tooltips="1" connect="1" arrows="1" fold="1" page="1" pageScale="1" pageWidth="827" pageHeight="1169" math="0" shadow="0">
      <root>
        <mxCell id="0" />
        <mxCell id="1" parent="0" />
        <mxCell id="UEt3ga348bzPmGt5Yssb-26" style="edgeStyle=orthogonalEdgeStyle;rounded=0;orthogonalLoop=1;jettySize=auto;html=1;exitX=0.5;exitY=1;exitDx=0;exitDy=0;entryX=0.5;entryY=0;entryDx=0;entryDy=0;" edge="1" parent="1" source="UEt3ga348bzPmGt5Yssb-1" target="UEt3ga348bzPmGt5Yssb-4">
          <mxGeometry relative="1" as="geometry" />
        </mxCell>
        <mxCell id="UEt3ga348bzPmGt5Yssb-1" value="Inicio" style="ellipse;whiteSpace=wrap;html=1;" vertex="1" parent="1">
          <mxGeometry x="400" y="50" width="120" height="80" as="geometry" />
        </mxCell>
        <mxCell id="UEt3ga348bzPmGt5Yssb-2" value="fin" style="ellipse;whiteSpace=wrap;html=1;" vertex="1" parent="1">
          <mxGeometry x="400" y="460" width="120" height="80" as="geometry" />
        </mxCell>
        <mxCell id="UEt3ga348bzPmGt5Yssb-27" style="edgeStyle=orthogonalEdgeStyle;rounded=0;orthogonalLoop=1;jettySize=auto;html=1;exitX=0.5;exitY=1;exitDx=0;exitDy=0;entryX=0.5;entryY=0;entryDx=0;entryDy=0;" edge="1" parent="1" source="UEt3ga348bzPmGt5Yssb-4" target="UEt3ga348bzPmGt5Yssb-7">
          <mxGeometry relative="1" as="geometry" />
        </mxCell>
        <mxCell id="UEt3ga348bzPmGt5Yssb-4" value="Primer numero, Segundo numero" style="shape=parallelogram;perimeter=parallelogramPerimeter;whiteSpace=wrap;html=1;fixedSize=1;" vertex="1" parent="1">
          <mxGeometry x="400" y="160" width="120" height="60" as="geometry" />
        </mxCell>
        <mxCell id="UEt3ga348bzPmGt5Yssb-17" style="edgeStyle=orthogonalEdgeStyle;rounded=0;orthogonalLoop=1;jettySize=auto;html=1;exitX=1;exitY=0.5;exitDx=0;exitDy=0;entryX=0.5;entryY=0;entryDx=0;entryDy=0;" edge="1" parent="1" source="UEt3ga348bzPmGt5Yssb-5" target="UEt3ga348bzPmGt5Yssb-8">
          <mxGeometry relative="1" as="geometry" />
        </mxCell>
        <mxCell id="UEt3ga348bzPmGt5Yssb-20" value="No" style="edgeLabel;html=1;align=center;verticalAlign=middle;resizable=0;points=[];" vertex="1" connectable="0" parent="UEt3ga348bzPmGt5Yssb-17">
          <mxGeometry x="0.1818" y="2" relative="1" as="geometry">
            <mxPoint as="offset" />
          </mxGeometry>
        </mxCell>
        <mxCell id="UEt3ga348bzPmGt5Yssb-18" style="edgeStyle=orthogonalEdgeStyle;rounded=0;orthogonalLoop=1;jettySize=auto;html=1;exitX=0.5;exitY=1;exitDx=0;exitDy=0;entryX=0.5;entryY=0;entryDx=0;entryDy=0;" edge="1" parent="1" source="UEt3ga348bzPmGt5Yssb-5" target="UEt3ga348bzPmGt5Yssb-9">
          <mxGeometry relative="1" as="geometry">
            <Array as="points">
              <mxPoint x="540" y="340" />
              <mxPoint x="470" y="340" />
            </Array>
          </mxGeometry>
        </mxCell>
        <mxCell id="UEt3ga348bzPmGt5Yssb-19" value="Si" style="edgeLabel;html=1;align=center;verticalAlign=middle;resizable=0;points=[];" vertex="1" connectable="0" parent="UEt3ga348bzPmGt5Yssb-18">
          <mxGeometry x="-0.28" y="-2" relative="1" as="geometry">
            <mxPoint as="offset" />
          </mxGeometry>
        </mxCell>
        <mxCell id="UEt3ga348bzPmGt5Yssb-5" value="Numero 1 es menor?" style="rhombus;whiteSpace=wrap;html=1;" vertex="1" parent="1">
          <mxGeometry x="500" y="250" width="80" height="80" as="geometry" />
        </mxCell>
        <mxCell id="UEt3ga348bzPmGt5Yssb-11" style="edgeStyle=orthogonalEdgeStyle;rounded=0;orthogonalLoop=1;jettySize=auto;html=1;exitX=0;exitY=0.5;exitDx=0;exitDy=0;entryX=0.5;entryY=0;entryDx=0;entryDy=0;" edge="1" parent="1" source="UEt3ga348bzPmGt5Yssb-7" target="UEt3ga348bzPmGt5Yssb-10">
          <mxGeometry relative="1" as="geometry" />
        </mxCell>
        <mxCell id="UEt3ga348bzPmGt5Yssb-22" value="Si" style="edgeLabel;html=1;align=center;verticalAlign=middle;resizable=0;points=[];" vertex="1" connectable="0" parent="UEt3ga348bzPmGt5Yssb-11">
          <mxGeometry x="-0.2" y="5" relative="1" as="geometry">
            <mxPoint as="offset" />
          </mxGeometry>
        </mxCell>
        <mxCell id="UEt3ga348bzPmGt5Yssb-16" style="edgeStyle=orthogonalEdgeStyle;rounded=0;orthogonalLoop=1;jettySize=auto;html=1;exitX=1;exitY=0.5;exitDx=0;exitDy=0;entryX=0;entryY=0.5;entryDx=0;entryDy=0;" edge="1" parent="1" source="UEt3ga348bzPmGt5Yssb-7" target="UEt3ga348bzPmGt5Yssb-5">
          <mxGeometry relative="1" as="geometry" />
        </mxCell>
        <mxCell id="UEt3ga348bzPmGt5Yssb-21" value="No" style="edgeLabel;html=1;align=center;verticalAlign=middle;resizable=0;points=[];" vertex="1" connectable="0" parent="UEt3ga348bzPmGt5Yssb-16">
          <mxGeometry x="-0.05" y="3" relative="1" as="geometry">
            <mxPoint as="offset" />
          </mxGeometry>
        </mxCell>
        <mxCell id="UEt3ga348bzPmGt5Yssb-7" value="Numero 1 es mayor a numero 2?" style="rhombus;whiteSpace=wrap;html=1;" vertex="1" parent="1">
          <mxGeometry x="380" y="250" width="80" height="80" as="geometry" />
        </mxCell>
        <mxCell id="UEt3ga348bzPmGt5Yssb-8" value="Los numeros son iguales" style="rounded=0;whiteSpace=wrap;html=1;" vertex="1" parent="1">
          <mxGeometry x="560" y="360" width="120" height="60" as="geometry" />
        </mxCell>
        <mxCell id="UEt3ga348bzPmGt5Yssb-24" style="edgeStyle=orthogonalEdgeStyle;rounded=0;orthogonalLoop=1;jettySize=auto;html=1;exitX=0.5;exitY=1;exitDx=0;exitDy=0;" edge="1" parent="1" source="UEt3ga348bzPmGt5Yssb-9">
          <mxGeometry relative="1" as="geometry">
            <mxPoint x="460" y="450" as="targetPoint" />
          </mxGeometry>
        </mxCell>
        <mxCell id="UEt3ga348bzPmGt5Yssb-9" value="Numero 2 es mayor" style="rounded=0;whiteSpace=wrap;html=1;" vertex="1" parent="1">
          <mxGeometry x="410" y="360" width="120" height="60" as="geometry" />
        </mxCell>
        <mxCell id="UEt3ga348bzPmGt5Yssb-23" style="edgeStyle=orthogonalEdgeStyle;rounded=0;orthogonalLoop=1;jettySize=auto;html=1;exitX=0.5;exitY=1;exitDx=0;exitDy=0;" edge="1" parent="1" source="UEt3ga348bzPmGt5Yssb-10" target="UEt3ga348bzPmGt5Yssb-2">
          <mxGeometry relative="1" as="geometry" />
        </mxCell>
        <mxCell id="UEt3ga348bzPmGt5Yssb-10" value="Numero 1 es mayor" style="rounded=0;whiteSpace=wrap;html=1;" vertex="1" parent="1">
          <mxGeometry x="260" y="360" width="120" height="60" as="geometry" />
        </mxCell>
        <mxCell id="UEt3ga348bzPmGt5Yssb-25" style="edgeStyle=orthogonalEdgeStyle;rounded=0;orthogonalLoop=1;jettySize=auto;html=1;exitX=0.5;exitY=1;exitDx=0;exitDy=0;" edge="1" parent="1" source="UEt3ga348bzPmGt5Yssb-8">
          <mxGeometry relative="1" as="geometry">
            <mxPoint x="460" y="460" as="targetPoint" />
          </mxGeometry>
        </mxCell>
      </root>
    </mxGraphModel>
  </diagram>
  <diagram id="0t-D_BifORbm2_3wvQvb" name="Actividad 8">
    <mxGraphModel dx="1108" dy="563" grid="1" gridSize="10" guides="1" tooltips="1" connect="1" arrows="1" fold="1" page="1" pageScale="1" pageWidth="827" pageHeight="1169" math="0" shadow="0">
      <root>
        <mxCell id="0" />
        <mxCell id="1" parent="0" />
        <mxCell id="9WSo8hDVozlcO0SVfq4D-1" value="Fin" style="ellipse;whiteSpace=wrap;html=1;" vertex="1" parent="1">
          <mxGeometry x="420" y="480" width="120" height="80" as="geometry" />
        </mxCell>
        <mxCell id="9-RkuxyeNLbssrFWKJsQ-17" style="edgeStyle=orthogonalEdgeStyle;rounded=0;orthogonalLoop=1;jettySize=auto;html=1;exitX=0.5;exitY=1;exitDx=0;exitDy=0;entryX=0.5;entryY=0;entryDx=0;entryDy=0;" edge="1" parent="1" source="9WSo8hDVozlcO0SVfq4D-2" target="9WSo8hDVozlcO0SVfq4D-3">
          <mxGeometry relative="1" as="geometry" />
        </mxCell>
        <mxCell id="9WSo8hDVozlcO0SVfq4D-2" value="Inicio" style="ellipse;whiteSpace=wrap;html=1;" vertex="1" parent="1">
          <mxGeometry x="350" width="120" height="80" as="geometry" />
        </mxCell>
        <mxCell id="9-RkuxyeNLbssrFWKJsQ-18" style="edgeStyle=orthogonalEdgeStyle;rounded=0;orthogonalLoop=1;jettySize=auto;html=1;exitX=0.5;exitY=1;exitDx=0;exitDy=0;entryX=0.5;entryY=0;entryDx=0;entryDy=0;" edge="1" parent="1" source="9WSo8hDVozlcO0SVfq4D-3" target="9-RkuxyeNLbssrFWKJsQ-5">
          <mxGeometry relative="1" as="geometry" />
        </mxCell>
        <mxCell id="9WSo8hDVozlcO0SVfq4D-3" value="Peso, Altura,&lt;div&gt;&amp;nbsp;Imc = peso altura**2&lt;/div&gt;" style="shape=parallelogram;perimeter=parallelogramPerimeter;whiteSpace=wrap;html=1;fixedSize=1;" vertex="1" parent="1">
          <mxGeometry x="350" y="110" width="120" height="60" as="geometry" />
        </mxCell>
        <mxCell id="9-RkuxyeNLbssrFWKJsQ-21" style="edgeStyle=orthogonalEdgeStyle;rounded=0;orthogonalLoop=1;jettySize=auto;html=1;exitX=0.5;exitY=1;exitDx=0;exitDy=0;entryX=0.5;entryY=0;entryDx=0;entryDy=0;" edge="1" parent="1" source="9-RkuxyeNLbssrFWKJsQ-3" target="9-RkuxyeNLbssrFWKJsQ-22">
          <mxGeometry relative="1" as="geometry">
            <mxPoint x="640" y="290" as="targetPoint" />
            <Array as="points">
              <mxPoint x="640" y="275" />
              <mxPoint x="600" y="275" />
            </Array>
          </mxGeometry>
        </mxCell>
        <mxCell id="9-RkuxyeNLbssrFWKJsQ-25" style="edgeStyle=orthogonalEdgeStyle;rounded=0;orthogonalLoop=1;jettySize=auto;html=1;exitX=1;exitY=0.5;exitDx=0;exitDy=0;entryX=0.5;entryY=0;entryDx=0;entryDy=0;" edge="1" parent="1" source="9-RkuxyeNLbssrFWKJsQ-3" target="9-RkuxyeNLbssrFWKJsQ-24">
          <mxGeometry relative="1" as="geometry" />
        </mxCell>
        <mxCell id="9-RkuxyeNLbssrFWKJsQ-26" value="No" style="edgeLabel;html=1;align=center;verticalAlign=middle;resizable=0;points=[];" vertex="1" connectable="0" parent="9-RkuxyeNLbssrFWKJsQ-25">
          <mxGeometry x="-0.4" y="-1" relative="1" as="geometry">
            <mxPoint as="offset" />
          </mxGeometry>
        </mxCell>
        <mxCell id="9-RkuxyeNLbssrFWKJsQ-3" value="Esta entre 29 y 25" style="rhombus;whiteSpace=wrap;html=1;" vertex="1" parent="1">
          <mxGeometry x="600" y="180" width="80" height="80" as="geometry" />
        </mxCell>
        <mxCell id="9-RkuxyeNLbssrFWKJsQ-12" style="edgeStyle=orthogonalEdgeStyle;rounded=0;orthogonalLoop=1;jettySize=auto;html=1;exitX=0.5;exitY=1;exitDx=0;exitDy=0;" edge="1" parent="1" source="9-RkuxyeNLbssrFWKJsQ-4" target="9-RkuxyeNLbssrFWKJsQ-13">
          <mxGeometry relative="1" as="geometry">
            <mxPoint x="400" y="300" as="targetPoint" />
            <Array as="points">
              <mxPoint x="520" y="290" />
              <mxPoint x="440" y="290" />
            </Array>
          </mxGeometry>
        </mxCell>
        <mxCell id="9-RkuxyeNLbssrFWKJsQ-14" value="Si" style="edgeLabel;html=1;align=center;verticalAlign=middle;resizable=0;points=[];" vertex="1" connectable="0" parent="9-RkuxyeNLbssrFWKJsQ-12">
          <mxGeometry x="-0.1467" y="3" relative="1" as="geometry">
            <mxPoint as="offset" />
          </mxGeometry>
        </mxCell>
        <mxCell id="9-RkuxyeNLbssrFWKJsQ-4" value="Esta entre 24 y 18" style="rhombus;whiteSpace=wrap;html=1;" vertex="1" parent="1">
          <mxGeometry x="480" y="180" width="80" height="80" as="geometry" />
        </mxCell>
        <mxCell id="9-RkuxyeNLbssrFWKJsQ-8" style="edgeStyle=orthogonalEdgeStyle;rounded=0;orthogonalLoop=1;jettySize=auto;html=1;exitX=0;exitY=0.5;exitDx=0;exitDy=0;entryX=0.5;entryY=0;entryDx=0;entryDy=0;" edge="1" parent="1" source="9-RkuxyeNLbssrFWKJsQ-5" target="9-RkuxyeNLbssrFWKJsQ-7">
          <mxGeometry relative="1" as="geometry" />
        </mxCell>
        <mxCell id="9-RkuxyeNLbssrFWKJsQ-9" value="Si" style="edgeLabel;html=1;align=center;verticalAlign=middle;resizable=0;points=[];" vertex="1" connectable="0" parent="9-RkuxyeNLbssrFWKJsQ-8">
          <mxGeometry x="0.0462" y="-1" relative="1" as="geometry">
            <mxPoint as="offset" />
          </mxGeometry>
        </mxCell>
        <mxCell id="9-RkuxyeNLbssrFWKJsQ-5" value="imc es menor al promedio?" style="rhombus;whiteSpace=wrap;html=1;" vertex="1" parent="1">
          <mxGeometry x="360" y="180" width="80" height="80" as="geometry" />
        </mxCell>
        <mxCell id="9-RkuxyeNLbssrFWKJsQ-16" style="edgeStyle=orthogonalEdgeStyle;rounded=0;orthogonalLoop=1;jettySize=auto;html=1;exitX=0.5;exitY=1;exitDx=0;exitDy=0;entryX=0.5;entryY=0;entryDx=0;entryDy=0;" edge="1" parent="1" source="9-RkuxyeNLbssrFWKJsQ-7" target="9WSo8hDVozlcO0SVfq4D-1">
          <mxGeometry relative="1" as="geometry">
            <mxPoint x="410" y="480" as="targetPoint" />
          </mxGeometry>
        </mxCell>
        <mxCell id="9-RkuxyeNLbssrFWKJsQ-7" value="Bajo de peso" style="rounded=0;whiteSpace=wrap;html=1;" vertex="1" parent="1">
          <mxGeometry x="200" y="300" width="120" height="60" as="geometry" />
        </mxCell>
        <mxCell id="9-RkuxyeNLbssrFWKJsQ-10" style="edgeStyle=orthogonalEdgeStyle;rounded=0;orthogonalLoop=1;jettySize=auto;html=1;exitX=1;exitY=0.5;exitDx=0;exitDy=0;entryX=0;entryY=0.5;entryDx=0;entryDy=0;" edge="1" parent="1" source="9-RkuxyeNLbssrFWKJsQ-5" target="9-RkuxyeNLbssrFWKJsQ-4">
          <mxGeometry relative="1" as="geometry" />
        </mxCell>
        <mxCell id="9-RkuxyeNLbssrFWKJsQ-11" value="No" style="edgeLabel;html=1;align=center;verticalAlign=middle;resizable=0;points=[];" vertex="1" connectable="0" parent="9-RkuxyeNLbssrFWKJsQ-10">
          <mxGeometry x="-0.25" y="4" relative="1" as="geometry">
            <mxPoint as="offset" />
          </mxGeometry>
        </mxCell>
        <mxCell id="9-RkuxyeNLbssrFWKJsQ-15" style="edgeStyle=orthogonalEdgeStyle;rounded=0;orthogonalLoop=1;jettySize=auto;html=1;exitX=0.5;exitY=1;exitDx=0;exitDy=0;entryX=0.5;entryY=0;entryDx=0;entryDy=0;" edge="1" parent="1" source="9-RkuxyeNLbssrFWKJsQ-13" target="9WSo8hDVozlcO0SVfq4D-1">
          <mxGeometry relative="1" as="geometry">
            <Array as="points">
              <mxPoint x="430" y="390" />
              <mxPoint x="480" y="390" />
            </Array>
          </mxGeometry>
        </mxCell>
        <mxCell id="9-RkuxyeNLbssrFWKJsQ-13" value="Peso normal" style="rounded=0;whiteSpace=wrap;html=1;" vertex="1" parent="1">
          <mxGeometry x="370" y="300" width="120" height="60" as="geometry" />
        </mxCell>
        <mxCell id="9-RkuxyeNLbssrFWKJsQ-19" style="edgeStyle=orthogonalEdgeStyle;rounded=0;orthogonalLoop=1;jettySize=auto;html=1;exitX=1;exitY=0.5;exitDx=0;exitDy=0;" edge="1" parent="1" source="9-RkuxyeNLbssrFWKJsQ-4">
          <mxGeometry relative="1" as="geometry">
            <mxPoint x="600" y="220" as="targetPoint" />
          </mxGeometry>
        </mxCell>
        <mxCell id="9-RkuxyeNLbssrFWKJsQ-20" value="No" style="edgeLabel;html=1;align=center;verticalAlign=middle;resizable=0;points=[];" vertex="1" connectable="0" parent="9-RkuxyeNLbssrFWKJsQ-19">
          <mxGeometry x="0.0082" y="-2" relative="1" as="geometry">
            <mxPoint x="-2" as="offset" />
          </mxGeometry>
        </mxCell>
        <mxCell id="9-RkuxyeNLbssrFWKJsQ-23" style="edgeStyle=orthogonalEdgeStyle;rounded=0;orthogonalLoop=1;jettySize=auto;html=1;exitX=0.5;exitY=1;exitDx=0;exitDy=0;entryX=0.5;entryY=0;entryDx=0;entryDy=0;" edge="1" parent="1" source="9-RkuxyeNLbssrFWKJsQ-22" target="9WSo8hDVozlcO0SVfq4D-1">
          <mxGeometry relative="1" as="geometry" />
        </mxCell>
        <mxCell id="9-RkuxyeNLbssrFWKJsQ-22" value="Sobre peso" style="rounded=0;whiteSpace=wrap;html=1;" vertex="1" parent="1">
          <mxGeometry x="540" y="300" width="120" height="60" as="geometry" />
        </mxCell>
        <mxCell id="9-RkuxyeNLbssrFWKJsQ-27" style="edgeStyle=orthogonalEdgeStyle;rounded=0;orthogonalLoop=1;jettySize=auto;html=1;exitX=0.5;exitY=1;exitDx=0;exitDy=0;entryX=0.5;entryY=0;entryDx=0;entryDy=0;" edge="1" parent="1" source="9-RkuxyeNLbssrFWKJsQ-24" target="9WSo8hDVozlcO0SVfq4D-1">
          <mxGeometry relative="1" as="geometry">
            <Array as="points">
              <mxPoint x="780" y="440" />
              <mxPoint x="480" y="440" />
            </Array>
          </mxGeometry>
        </mxCell>
        <mxCell id="9-RkuxyeNLbssrFWKJsQ-24" value="Obesidad" style="rounded=0;whiteSpace=wrap;html=1;" vertex="1" parent="1">
          <mxGeometry x="680" y="300" width="120" height="60" as="geometry" />
        </mxCell>
      </root>
    </mxGraphModel>
  </diagram>
  <diagram id="p1WWuZGwyN6IHm13BVNq" name="Actividad 9">
    <mxGraphModel dx="3166" dy="1609" grid="1" gridSize="10" guides="1" tooltips="1" connect="1" arrows="1" fold="1" page="1" pageScale="1" pageWidth="827" pageHeight="1169" math="0" shadow="0">
      <root>
        <mxCell id="0" />
        <mxCell id="1" parent="0" />
        <mxCell id="CvNmVx05VTuhHG0Ou9gm-1" value="" style="edgeStyle=orthogonalEdgeStyle;rounded=0;orthogonalLoop=1;jettySize=auto;html=1;" edge="1" parent="1" source="CvNmVx05VTuhHG0Ou9gm-2" target="CvNmVx05VTuhHG0Ou9gm-4">
          <mxGeometry relative="1" as="geometry" />
        </mxCell>
        <mxCell id="CvNmVx05VTuhHG0Ou9gm-2" value="Inicio" style="ellipse;whiteSpace=wrap;html=1;" vertex="1" parent="1">
          <mxGeometry x="340" y="30" width="120" height="80" as="geometry" />
        </mxCell>
        <mxCell id="CvNmVx05VTuhHG0Ou9gm-3" value="" style="edgeStyle=orthogonalEdgeStyle;rounded=0;orthogonalLoop=1;jettySize=auto;html=1;" edge="1" parent="1" source="CvNmVx05VTuhHG0Ou9gm-4" target="CvNmVx05VTuhHG0Ou9gm-7">
          <mxGeometry relative="1" as="geometry" />
        </mxCell>
        <mxCell id="CvNmVx05VTuhHG0Ou9gm-4" value="Solicitar año" style="shape=parallelogram;perimeter=parallelogramPerimeter;whiteSpace=wrap;html=1;fixedSize=1;" vertex="1" parent="1">
          <mxGeometry x="340" y="200" width="120" height="60" as="geometry" />
        </mxCell>
        <mxCell id="CvNmVx05VTuhHG0Ou9gm-5" value="" style="edgeStyle=orthogonalEdgeStyle;rounded=0;orthogonalLoop=1;jettySize=auto;html=1;" edge="1" parent="1" source="CvNmVx05VTuhHG0Ou9gm-7" target="CvNmVx05VTuhHG0Ou9gm-9">
          <mxGeometry relative="1" as="geometry" />
        </mxCell>
        <mxCell id="CvNmVx05VTuhHG0Ou9gm-6" value="" style="edgeStyle=orthogonalEdgeStyle;rounded=0;orthogonalLoop=1;jettySize=auto;html=1;" edge="1" parent="1" source="CvNmVx05VTuhHG0Ou9gm-7" target="CvNmVx05VTuhHG0Ou9gm-14">
          <mxGeometry relative="1" as="geometry" />
        </mxCell>
        <mxCell id="CvNmVx05VTuhHG0Ou9gm-7" value="año % 4 == 0 and año % 100 != 0" style="rhombus;whiteSpace=wrap;html=1;" vertex="1" parent="1">
          <mxGeometry x="60" y="340" width="230" height="160" as="geometry" />
        </mxCell>
        <mxCell id="CvNmVx05VTuhHG0Ou9gm-8" style="edgeStyle=orthogonalEdgeStyle;rounded=0;orthogonalLoop=1;jettySize=auto;html=1;exitX=1;exitY=0.5;exitDx=0;exitDy=0;" edge="1" parent="1" source="CvNmVx05VTuhHG0Ou9gm-9" target="CvNmVx05VTuhHG0Ou9gm-21">
          <mxGeometry relative="1" as="geometry" />
        </mxCell>
        <mxCell id="CvNmVx05VTuhHG0Ou9gm-9" value="El año ingresado es bisiesto" style="shape=parallelogram;perimeter=parallelogramPerimeter;whiteSpace=wrap;html=1;fixedSize=1;" vertex="1" parent="1">
          <mxGeometry x="365" y="385" width="150" height="70" as="geometry" />
        </mxCell>
        <mxCell id="CvNmVx05VTuhHG0Ou9gm-10" value="si" style="text;html=1;align=center;verticalAlign=middle;resizable=0;points=[];autosize=1;strokeColor=none;fillColor=none;" vertex="1" parent="1">
          <mxGeometry x="315" y="385" width="30" height="30" as="geometry" />
        </mxCell>
        <mxCell id="CvNmVx05VTuhHG0Ou9gm-11" value="no" style="text;html=1;align=center;verticalAlign=middle;resizable=0;points=[];autosize=1;strokeColor=none;fillColor=none;" vertex="1" parent="1">
          <mxGeometry x="135" y="510" width="40" height="30" as="geometry" />
        </mxCell>
        <mxCell id="CvNmVx05VTuhHG0Ou9gm-12" value="" style="edgeStyle=orthogonalEdgeStyle;rounded=0;orthogonalLoop=1;jettySize=auto;html=1;" edge="1" parent="1" source="CvNmVx05VTuhHG0Ou9gm-14" target="CvNmVx05VTuhHG0Ou9gm-16">
          <mxGeometry relative="1" as="geometry" />
        </mxCell>
        <mxCell id="CvNmVx05VTuhHG0Ou9gm-13" value="" style="edgeStyle=orthogonalEdgeStyle;rounded=0;orthogonalLoop=1;jettySize=auto;html=1;" edge="1" parent="1" source="CvNmVx05VTuhHG0Ou9gm-14" target="CvNmVx05VTuhHG0Ou9gm-18">
          <mxGeometry relative="1" as="geometry" />
        </mxCell>
        <mxCell id="CvNmVx05VTuhHG0Ou9gm-14" value="año % 400 == 0" style="rhombus;whiteSpace=wrap;html=1;" vertex="1" parent="1">
          <mxGeometry x="92.5" y="580" width="165" height="100" as="geometry" />
        </mxCell>
        <mxCell id="CvNmVx05VTuhHG0Ou9gm-15" style="edgeStyle=orthogonalEdgeStyle;rounded=0;orthogonalLoop=1;jettySize=auto;html=1;exitX=1;exitY=0.5;exitDx=0;exitDy=0;" edge="1" parent="1" source="CvNmVx05VTuhHG0Ou9gm-16" target="CvNmVx05VTuhHG0Ou9gm-21">
          <mxGeometry relative="1" as="geometry" />
        </mxCell>
        <mxCell id="CvNmVx05VTuhHG0Ou9gm-16" value="El año ingresado es bisiesto" style="shape=parallelogram;perimeter=parallelogramPerimeter;whiteSpace=wrap;html=1;fixedSize=1;" vertex="1" parent="1">
          <mxGeometry x="360" y="590" width="145" height="80" as="geometry" />
        </mxCell>
        <mxCell id="CvNmVx05VTuhHG0Ou9gm-17" style="edgeStyle=orthogonalEdgeStyle;rounded=0;orthogonalLoop=1;jettySize=auto;html=1;exitX=1;exitY=0.5;exitDx=0;exitDy=0;entryX=0.5;entryY=1;entryDx=0;entryDy=0;" edge="1" parent="1" source="CvNmVx05VTuhHG0Ou9gm-18" target="CvNmVx05VTuhHG0Ou9gm-21">
          <mxGeometry relative="1" as="geometry" />
        </mxCell>
        <mxCell id="CvNmVx05VTuhHG0Ou9gm-18" value="El año no es bisiesto" style="shape=parallelogram;perimeter=parallelogramPerimeter;whiteSpace=wrap;html=1;fixedSize=1;" vertex="1" parent="1">
          <mxGeometry x="95" y="770" width="160" height="80" as="geometry" />
        </mxCell>
        <mxCell id="CvNmVx05VTuhHG0Ou9gm-19" value="si" style="text;html=1;align=center;verticalAlign=middle;resizable=0;points=[];autosize=1;strokeColor=none;fillColor=none;" vertex="1" parent="1">
          <mxGeometry x="291" y="598" width="30" height="30" as="geometry" />
        </mxCell>
        <mxCell id="CvNmVx05VTuhHG0Ou9gm-20" value="no" style="text;html=1;align=center;verticalAlign=middle;resizable=0;points=[];autosize=1;strokeColor=none;fillColor=none;" vertex="1" parent="1">
          <mxGeometry x="166" y="708" width="40" height="30" as="geometry" />
        </mxCell>
        <mxCell id="CvNmVx05VTuhHG0Ou9gm-21" value="Fin" style="ellipse;whiteSpace=wrap;html=1;" vertex="1" parent="1">
          <mxGeometry x="620" y="590" width="140" height="80" as="geometry" />
        </mxCell>
      </root>
    </mxGraphModel>
  </diagram>
  <diagram id="yApr0xHLGmWroxCKDKLc" name="Actividad 10">
    <mxGraphModel dx="2770" dy="1408" grid="1" gridSize="10" guides="1" tooltips="1" connect="1" arrows="1" fold="1" page="1" pageScale="1" pageWidth="827" pageHeight="1169" math="0" shadow="0">
      <root>
        <mxCell id="0" />
        <mxCell id="1" parent="0" />
        <mxCell id="d-d8fBMsq5MXOV3mSSKi-7" style="edgeStyle=orthogonalEdgeStyle;rounded=0;orthogonalLoop=1;jettySize=auto;html=1;exitX=0.5;exitY=1;exitDx=0;exitDy=0;entryX=0.5;entryY=0;entryDx=0;entryDy=0;" edge="1" parent="1" source="d-d8fBMsq5MXOV3mSSKi-1" target="d-d8fBMsq5MXOV3mSSKi-3">
          <mxGeometry relative="1" as="geometry" />
        </mxCell>
        <mxCell id="d-d8fBMsq5MXOV3mSSKi-1" value="Inicio" style="ellipse;whiteSpace=wrap;html=1;" vertex="1" parent="1">
          <mxGeometry x="380" y="120" width="120" height="80" as="geometry" />
        </mxCell>
        <mxCell id="d-d8fBMsq5MXOV3mSSKi-2" value="Fin" style="ellipse;whiteSpace=wrap;html=1;" vertex="1" parent="1">
          <mxGeometry x="380" y="480" width="120" height="80" as="geometry" />
        </mxCell>
        <mxCell id="d-d8fBMsq5MXOV3mSSKi-8" style="edgeStyle=orthogonalEdgeStyle;rounded=0;orthogonalLoop=1;jettySize=auto;html=1;exitX=0.5;exitY=1;exitDx=0;exitDy=0;entryX=0.5;entryY=0;entryDx=0;entryDy=0;" edge="1" parent="1" source="d-d8fBMsq5MXOV3mSSKi-3" target="d-d8fBMsq5MXOV3mSSKi-4">
          <mxGeometry relative="1" as="geometry" />
        </mxCell>
        <mxCell id="d-d8fBMsq5MXOV3mSSKi-3" value="Numero" style="shape=parallelogram;perimeter=parallelogramPerimeter;whiteSpace=wrap;html=1;fixedSize=1;" vertex="1" parent="1">
          <mxGeometry x="380" y="220" width="120" height="60" as="geometry" />
        </mxCell>
        <mxCell id="d-d8fBMsq5MXOV3mSSKi-9" style="edgeStyle=orthogonalEdgeStyle;rounded=0;orthogonalLoop=1;jettySize=auto;html=1;exitX=1;exitY=0.5;exitDx=0;exitDy=0;entryX=0.5;entryY=0;entryDx=0;entryDy=0;" edge="1" parent="1" source="d-d8fBMsq5MXOV3mSSKi-4" target="d-d8fBMsq5MXOV3mSSKi-5">
          <mxGeometry relative="1" as="geometry" />
        </mxCell>
        <mxCell id="d-d8fBMsq5MXOV3mSSKi-10" style="edgeStyle=orthogonalEdgeStyle;rounded=0;orthogonalLoop=1;jettySize=auto;html=1;exitX=0;exitY=0.5;exitDx=0;exitDy=0;entryX=0.5;entryY=0;entryDx=0;entryDy=0;" edge="1" parent="1" source="d-d8fBMsq5MXOV3mSSKi-4" target="d-d8fBMsq5MXOV3mSSKi-6">
          <mxGeometry relative="1" as="geometry" />
        </mxCell>
        <mxCell id="d-d8fBMsq5MXOV3mSSKi-4" value="Esta entre 1 y 10?" style="rhombus;whiteSpace=wrap;html=1;" vertex="1" parent="1">
          <mxGeometry x="400" y="290" width="80" height="80" as="geometry" />
        </mxCell>
        <mxCell id="d-d8fBMsq5MXOV3mSSKi-12" style="edgeStyle=orthogonalEdgeStyle;rounded=0;orthogonalLoop=1;jettySize=auto;html=1;exitX=0.5;exitY=1;exitDx=0;exitDy=0;" edge="1" parent="1" source="d-d8fBMsq5MXOV3mSSKi-5">
          <mxGeometry relative="1" as="geometry">
            <mxPoint x="440" y="480" as="targetPoint" />
          </mxGeometry>
        </mxCell>
        <mxCell id="d-d8fBMsq5MXOV3mSSKi-5" value="esta en el rango de 1 y 10" style="rounded=0;whiteSpace=wrap;html=1;" vertex="1" parent="1">
          <mxGeometry x="490" y="370" width="120" height="60" as="geometry" />
        </mxCell>
        <mxCell id="d-d8fBMsq5MXOV3mSSKi-11" style="edgeStyle=orthogonalEdgeStyle;rounded=0;orthogonalLoop=1;jettySize=auto;html=1;exitX=0.5;exitY=1;exitDx=0;exitDy=0;entryX=0.5;entryY=0;entryDx=0;entryDy=0;" edge="1" parent="1" source="d-d8fBMsq5MXOV3mSSKi-6" target="d-d8fBMsq5MXOV3mSSKi-2">
          <mxGeometry relative="1" as="geometry" />
        </mxCell>
        <mxCell id="d-d8fBMsq5MXOV3mSSKi-6" value="Esta en el rango de 1 y 10" style="rounded=0;whiteSpace=wrap;html=1;" vertex="1" parent="1">
          <mxGeometry x="270" y="370" width="120" height="60" as="geometry" />
        </mxCell>
      </root>
    </mxGraphModel>
  </diagram>
</mxfile>
